<!DOCTYPE svg PUBLIC "-//W3C//DTD SVG 1.1//EN" "http://www.w3.org/Graphics/SVG/1.1/DTD/svg11.dtd">
<!-- Uploaded to: SVG Repo, www.svgrepo.com, Transformed by: SVG Repo Mixer Tools -->
<svg fill="#E3DFD5" version="1.1" id="Layer_1" xmlns="http://www.w3.org/2000/svg" xmlns:xlink="http://www.w3.org/1999/xlink" viewBox="0 0 511.803 511.803" xml:space="preserve" width="800px" height="800px" stroke="#E3DFD5" stroke-width="0.005118030000000001">
<g id="SVGRepo_bgCarrier" stroke-width="0"/>
<g id="SVGRepo_tracerCarrier" stroke-linecap="round" stroke-linejoin="round"/>
<g id="SVGRepo_iconCarrier"> <g> <g> <path d="M443.7,247.301c-9.4,0-17.1,7.7-17.1,17.1c0,9.4,7.7,17.1,17.1,17.1c9.4,0,17.1-7.7,17.1-17.1 C460.8,254.901,453.1,247.301,443.7,247.301z"/> </g> </g> <g> <g> <rect x="290.1" y="281.401" width="34.2" height="34.1"/> </g> </g> <g> <g> <path d="M483.9,198.601c-1.6-1.6-3.8-2.5-6-2.5h-30.1l-28.5-34.1h41.5c18.8,0,34.1-15.3,34.1-34.1c0-18.8-15.3-34.1-34.1-34.1H196 c-7.8-10.3-20-17.1-33.9-17.1H76.8c-23.5,0-42.7,19.1-42.7,42.7c0,23.5,19.1,42.7,42.7,42.7h85.3c13.9,0,26.1-6.8,33.9-17.1h5.1 l55.3,59c-1.5,1.6-2.7,3.4-3.8,5.5c-1.2,2.4-3.5,3.8-6.2,3.8h-58.7c-4.7,0-8.5,3.8-8.5,8.5h-34.1v-8.5c0-4.7-3.8-8.5-8.5-8.5H90.4 c-18.8-27.1-48.3-42.7-81.9-42.7c-4.7,0-8.5,3.8-8.5,8.5v256c0,4.7,3.8,8.5,8.5,8.5c33.5,0,63.1-15.6,81.9-42.7h46.1 c4.7,0,8.5-3.8,8.5-8.5v-8.5h34.1c0,4.7,3.8,8.5,8.5,8.5h58.7c2.6,0,5,1.5,6.2,3.8c4.1,8.2,12.3,13.3,21.4,13.3h203.8 c2.3,0,4.4-0.9,6-2.5c18.1-18.1,28.1-42.2,28.1-67.8v-64.1C512,240.801,502,216.701,483.9,198.601z M76.8,382.302 c-14.1,20.7-35,33-59.7,35.3v-238.2c24.7,2.3,45.6,14.6,59.7,35.3V382.302z M179.2,358.201h-34.1v-119.5h34.1V358.201z M211,130.502c-1.6-1.7-3.9-2.7-6.2-2.7h-0.9c0.6-2.8,0.9-5.6,0.9-8.5s-0.3-5.8-0.9-8.5h26.5v8.5c0,4.7,3.8,8.5,8.5,8.5 s8.5-3.8,8.5-8.5v-8.5h17.1v8.5c0,4.7,3.8,8.5,8.5,8.5s8.5-3.8,8.5-8.5v-8.5h17.1v8.5c0,4.7,3.8,8.5,8.5,8.5s8.5-3.8,8.5-8.5v-8.5 h17.1v8.5c0,4.7,3.8,8.5,8.5,8.5s8.5-3.8,8.5-8.5v-8.5h17.1v8.5c0,4.7,3.8,8.5,8.5,8.5s8.5-3.8,8.5-8.5v-8.5h17.1v8.5 c0,4.7,3.8,8.5,8.5,8.5s8.5-3.8,8.5-8.5v-8.5H435v8.5c0,4.7,3.8,8.5,8.5,8.5s8.5-3.8,8.5-8.5v-8.5h8.5c9.4,0,17.1,7.7,17.1,17.1 c0,9.4-7.7,17.1-17.1,17.1h-59.7c-3.3,0-6.3,1.9-7.7,4.9s-1,6.5,1.2,9.1l31,37.2h-33l-35.8-47.8c-1.6-2.2-4.1-3.4-6.8-3.4h-68.3 c-3.2,0-6.2,1.8-7.6,4.7c-1.4,2.9-1.1,6.3,0.8,8.9l28.2,37.5h-28.9h-1.6L211,130.502z M371.2,196.101h-46.9l-25.6-34.1h46.9 L371.2,196.101z M403.4,359.901c-3.3,4.3-8.2,6.8-13.6,6.8h-99.6c-9.4,0-17.1-7.7-17.1-17.1v-25.6v-51.2v-25.6 c0-9.4,7.7-17.1,17.1-17.1h70.4c7.6,0,14.3,5.1,16.4,12.4l29.3,102.4C407.6,350.201,406.6,355.602,403.4,359.901z M443.7,298.502 c-18.8,0-34.1-15.3-34.1-34.1c0-18.8,15.3-34.1,34.1-34.1s34.1,15.3,34.1,34.1C477.8,283.202,462.6,298.502,443.7,298.502z"/> </g> </g> <g> <g> <path d="M360.4,247.301h-70.3v17.1h42.7c4.7,0,8.5,3.8,8.5,8.5v51.2c0,4.7-3.8,8.5-8.5,8.5h-42.7v17.1h99.6L360.4,247.301z"/> </g> </g> </g>
</svg>